<?xml version="1.0" encoding="utf-8"?>
<!-- Generator: Adobe Illustrator 24.3.0, SVG Export Plug-In . SVG Version: 6.00 Build 0)  -->
<svg version="1.1" id="Layer_1" xmlns="http://www.w3.org/2000/svg" xmlns:xlink="http://www.w3.org/1999/xlink" x="0px" y="0px"
	 viewBox="0 0 232.28 49.67" style="enable-background:new 0 0 232.28 49.67;" xml:space="preserve">
<style type="text/css">
	.st0{fill:#231F20;}
	.st1{fill:#929497;}
	.st2{fill:#C32126;}
</style>
<g>
	<g>
		<g>
			<g>
				<g>
					<path class="st0" d="M40.02,31.78V17.5h2.85v6.34l5.75-6.34h3.83l-5.31,5.56l5.6,8.72h-3.69l-3.88-6.7l-2.31,2.39v4.31H40.02z"
						/>
					<path class="st0" d="M54.22,31.78V17.5h2.85v5.62h5.58V17.5h2.85v14.28h-2.85v-6.24h-5.58v6.24H54.22z"/>
					<path class="st0" d="M81.16,31.78h-3.1l-1.23-3.24h-5.64l-1.16,3.24h-3.02L72.5,17.5h3.01L81.16,31.78z M75.92,26.13l-1.94-5.3
						l-1.91,5.3H75.92z"/>
					<path class="st0" d="M82.66,17.5h5.21c1.17,0,2.07,0.09,2.68,0.27c0.83,0.25,1.54,0.68,2.13,1.31c0.59,0.63,1.04,1.4,1.35,2.31
						c0.31,0.91,0.46,2.04,0.46,3.37c0,1.18-0.14,2.19-0.43,3.04c-0.35,1.04-0.86,1.88-1.51,2.52c-0.49,0.49-1.16,0.87-2,1.14
						c-0.63,0.2-1.47,0.3-2.52,0.3h-5.36V17.5z M85.51,19.92v9.46h2.13c0.8,0,1.37-0.05,1.72-0.14c0.46-0.12,0.85-0.31,1.15-0.59
						c0.3-0.28,0.55-0.74,0.75-1.38c0.19-0.64,0.29-1.51,0.29-2.61c0-1.1-0.1-1.95-0.29-2.54c-0.19-0.59-0.46-1.05-0.81-1.38
						c-0.35-0.33-0.79-0.56-1.32-0.67c-0.4-0.09-1.18-0.14-2.34-0.14H85.51z"/>
					<path class="st0" d="M96.82,31.78V17.5h2.85v14.28H96.82z"/>
					<path class="st0" d="M102.34,31.78V17.5h4.26l2.56,9.74l2.53-9.74h4.27v14.28h-2.65V20.54l-2.8,11.24h-2.74l-2.79-11.24v11.24
						H102.34z"/>
					<path class="st0" d="M133.29,26.53l2.76,0.89c-0.42,1.56-1.13,2.71-2.11,3.47c-0.98,0.76-2.23,1.13-3.75,1.13
						c-1.87,0-3.41-0.65-4.62-1.94c-1.21-1.3-1.81-3.07-1.81-5.31c0-2.38,0.61-4.22,1.82-5.54c1.21-1.31,2.81-1.97,4.78-1.97
						c1.73,0,3.13,0.52,4.21,1.55c0.64,0.61,1.12,1.49,1.44,2.63l-2.82,0.68c-0.17-0.74-0.51-1.32-1.04-1.75
						c-0.53-0.43-1.17-0.64-1.93-0.64c-1.05,0-1.89,0.38-2.55,1.14c-0.65,0.76-0.98,1.99-0.98,3.69c0,1.81,0.32,3.09,0.96,3.86
						c0.64,0.77,1.48,1.15,2.5,1.15c0.76,0,1.41-0.24,1.95-0.73C132.66,28.34,133.06,27.58,133.29,26.53z"/>
					<path class="st0" d="M138.5,31.78V17.5h10.46v2.41h-7.61v3.17h7.08v2.41h-7.08v3.89h7.88v2.41H138.5z"/>
					<path class="st0" d="M151.65,31.78V17.5h5.99c1.51,0,2.6,0.13,3.29,0.38c0.68,0.26,1.23,0.71,1.64,1.37
						c0.41,0.66,0.62,1.4,0.62,2.25c0,1.07-0.31,1.96-0.93,2.65c-0.62,0.7-1.55,1.14-2.79,1.32c0.62,0.36,1.12,0.76,1.53,1.2
						c0.4,0.43,0.94,1.21,1.62,2.32l1.72,2.79h-3.41l-2.06-3.11c-0.73-1.11-1.23-1.81-1.5-2.1c-0.27-0.29-0.55-0.49-0.86-0.59
						c-0.3-0.11-0.78-0.16-1.43-0.16h-0.58v5.96H151.65z M154.5,23.54h2.11c1.37,0,2.22-0.06,2.56-0.18c0.34-0.12,0.61-0.32,0.8-0.6
						c0.19-0.29,0.29-0.64,0.29-1.07c0-0.48-0.13-0.87-0.38-1.16c-0.25-0.3-0.61-0.48-1.07-0.56c-0.23-0.03-0.92-0.05-2.08-0.05
						h-2.22V23.54z"/>
					<path class="st0" d="M178.59,31.78h-3.1l-1.23-3.24h-5.64l-1.16,3.24h-3.02l5.49-14.28h3.01L178.59,31.78z M173.35,26.13
						l-1.94-5.3l-1.91,5.3H173.35z"/>
					<path class="st0" d="M180.07,31.78V17.5h4.26l2.56,9.74l2.53-9.74h4.27v14.28h-2.65V20.54l-2.8,11.24h-2.74l-2.79-11.24v11.24
						H180.07z"/>
					<path class="st0" d="M196.43,31.78V17.5h2.85v14.28H196.43z"/>
					<path class="st0" d="M211.02,26.53l2.76,0.89c-0.42,1.56-1.13,2.71-2.11,3.47c-0.98,0.76-2.23,1.13-3.75,1.13
						c-1.87,0-3.41-0.65-4.62-1.94c-1.21-1.3-1.81-3.07-1.81-5.31c0-2.38,0.61-4.22,1.82-5.54c1.21-1.31,2.81-1.97,4.78-1.97
						c1.73,0,3.13,0.52,4.21,1.55c0.64,0.61,1.12,1.49,1.44,2.63l-2.82,0.68c-0.17-0.74-0.51-1.32-1.04-1.75
						c-0.53-0.43-1.17-0.64-1.93-0.64c-1.05,0-1.89,0.38-2.55,1.14c-0.65,0.76-0.98,1.99-0.98,3.69c0,1.81,0.32,3.09,0.96,3.86
						c0.64,0.77,1.48,1.15,2.5,1.15c0.76,0,1.41-0.24,1.95-0.73C210.39,28.34,210.78,27.58,211.02,26.53z"/>
					<path class="st0" d="M215.51,27.13l2.77-0.27c0.17,0.94,0.51,1.63,1.02,2.07c0.51,0.44,1.2,0.66,2.06,0.66
						c0.92,0,1.61-0.2,2.07-0.59c0.47-0.39,0.7-0.85,0.7-1.38c0-0.34-0.1-0.62-0.29-0.86c-0.2-0.24-0.54-0.44-1.02-0.62
						c-0.33-0.12-1.09-0.32-2.28-0.62c-1.53-0.38-2.6-0.85-3.21-1.41c-0.87-0.79-1.3-1.74-1.3-2.87c0-0.73,0.2-1.41,0.61-2.04
						c0.41-0.63,0.99-1.11,1.76-1.45c0.77-0.33,1.69-0.5,2.78-0.5c1.77,0,3.1,0.39,4,1.18c0.9,0.79,1.36,1.83,1.41,3.15l-2.85,0.13
						c-0.12-0.73-0.38-1.26-0.78-1.58c-0.4-0.32-1-0.48-1.8-0.48c-0.83,0-1.48,0.17-1.94,0.52c-0.3,0.22-0.45,0.52-0.45,0.89
						c0,0.34,0.14,0.63,0.42,0.87c0.36,0.3,1.23,0.62,2.62,0.95c1.39,0.33,2.41,0.67,3.07,1.03c0.66,0.35,1.18,0.84,1.56,1.45
						c0.38,0.61,0.56,1.37,0.56,2.27c0,0.82-0.22,1.58-0.67,2.3c-0.45,0.71-1.08,1.25-1.91,1.59c-0.82,0.35-1.84,0.52-3.07,0.52
						c-1.78,0-3.15-0.42-4.11-1.25C216.26,29.95,215.69,28.73,215.51,27.13z"/>
				</g>
			</g>
			<g>
				<g>
					<polygon class="st1" points="4.4,17.86 4.4,45.47 18.98,45.38 4.77,31.76 18.79,17.86 					"/>
					<polygon class="st1" points="23.38,17.66 9.04,31.46 23.46,45.2 33.27,35.86 30.98,33.76 23.46,41 13.5,31.46 23.46,22 
						31.05,29.02 33.21,26.86 					"/>
					<polygon class="st1" points="16.61,32.97 16.61,30.08 17.33,30.08 17.33,31.36 18.77,30.08 19.73,30.08 18.4,31.2 19.8,32.97 
						18.87,32.97 17.9,31.61 17.33,32.09 17.33,32.97 					"/>
					<polygon class="st1" points="20.17,32.97 20.17,30.08 20.89,30.08 20.89,31.21 22.29,31.21 22.29,30.08 23,30.08 23,32.97 
						22.29,32.97 22.29,31.7 20.89,31.7 20.89,32.97 					"/>
					<path class="st1" d="M25.62,31.82l-0.49-1.07l-0.48,1.07H25.62z M26.93,32.97h-0.76l-0.31-0.66h-1.42l-0.29,0.66h-0.77
						l1.37-2.89h0.76L26.93,32.97z"/>
					<path class="st1" d="M28.04,30.57v1.91h0.53c0.2,0,0.34-0.01,0.43-0.02c0.11-0.02,0.21-0.06,0.29-0.13
						c0.08-0.04,0.14-0.14,0.18-0.27c0.05-0.13,0.08-0.31,0.08-0.53c0-0.22-0.02-0.39-0.08-0.51c-0.04-0.12-0.11-0.22-0.2-0.29
						c-0.09-0.07-0.2-0.11-0.34-0.14c-0.1-0.02-0.29-0.03-0.58-0.03H28.04z M27.31,30.08h1.3c0.3,0,0.52,0.02,0.68,0.06
						c0.2,0.05,0.39,0.14,0.54,0.27c0.15,0.13,0.26,0.29,0.34,0.46c0.08,0.19,0.11,0.41,0.11,0.68c0,0.24-0.04,0.44-0.11,0.61
						c-0.08,0.21-0.21,0.39-0.38,0.52c-0.12,0.09-0.29,0.17-0.5,0.23c-0.16,0.04-0.37,0.06-0.64,0.06h-1.35V30.08z"/>
					<rect x="30.86" y="30.08" class="st1" width="0.72" height="2.89"/>
				</g>
				<polygon class="st1" points="32.25,33 32.25,30.13 33.33,30.13 33.96,32.09 34.6,30.13 35.68,30.13 35.68,33 35.01,33 35,30.74 
					34.31,33 33.62,33 32.92,30.74 32.92,33 				"/>
			</g>
		</g>
		<g>
			<path class="st0" d="M174.6,10.89c0,0.39-0.07,0.73-0.21,1.04c-0.14,0.3-0.34,0.56-0.6,0.77c-0.25,0.21-0.55,0.37-0.9,0.48
				c-0.34,0.11-0.71,0.16-1.11,0.16c-0.28,0-0.54-0.02-0.77-0.07c-0.24-0.05-0.45-0.1-0.63-0.17c-0.19-0.07-0.34-0.14-0.47-0.21
				s-0.21-0.13-0.26-0.19c-0.05-0.05-0.09-0.12-0.11-0.2c-0.02-0.08-0.04-0.19-0.04-0.32c0-0.09,0-0.17,0.01-0.23
				c0.01-0.06,0.02-0.11,0.04-0.15c0.02-0.04,0.04-0.07,0.06-0.08c0.03-0.01,0.06-0.02,0.09-0.02c0.06,0,0.14,0.04,0.25,0.11
				c0.11,0.07,0.25,0.15,0.42,0.24c0.17,0.09,0.38,0.16,0.62,0.24c0.24,0.07,0.52,0.11,0.84,0.11c0.24,0,0.46-0.03,0.66-0.1
				c0.2-0.06,0.37-0.16,0.51-0.27c0.14-0.12,0.25-0.26,0.33-0.43c0.08-0.17,0.12-0.37,0.12-0.58c0-0.24-0.05-0.44-0.16-0.6
				c-0.11-0.17-0.25-0.31-0.42-0.44c-0.18-0.13-0.38-0.24-0.6-0.35c-0.22-0.1-0.45-0.21-0.69-0.32c-0.24-0.11-0.46-0.23-0.68-0.36
				c-0.22-0.13-0.42-0.29-0.6-0.47c-0.18-0.18-0.32-0.39-0.43-0.63c-0.11-0.24-0.16-0.53-0.16-0.87c0-0.35,0.06-0.65,0.19-0.93
				c0.13-0.27,0.3-0.5,0.53-0.68c0.22-0.18,0.49-0.32,0.8-0.42c0.31-0.1,0.64-0.14,1-0.14c0.18,0,0.37,0.02,0.55,0.05
				c0.19,0.03,0.36,0.07,0.53,0.13c0.16,0.05,0.31,0.11,0.44,0.18c0.13,0.07,0.21,0.12,0.25,0.16c0.04,0.04,0.07,0.07,0.08,0.1
				c0.01,0.02,0.02,0.05,0.03,0.09c0.01,0.04,0.02,0.08,0.02,0.13c0,0.05,0.01,0.12,0.01,0.2c0,0.08,0,0.14-0.01,0.2
				c-0.01,0.06-0.02,0.11-0.03,0.15c-0.01,0.04-0.03,0.07-0.05,0.09c-0.02,0.02-0.05,0.03-0.08,0.03c-0.05,0-0.12-0.03-0.22-0.09
				c-0.1-0.06-0.22-0.13-0.37-0.2c-0.14-0.07-0.32-0.14-0.52-0.2c-0.2-0.06-0.42-0.09-0.67-0.09c-0.23,0-0.43,0.03-0.6,0.09
				c-0.17,0.06-0.31,0.14-0.42,0.25c-0.11,0.1-0.19,0.22-0.25,0.36c-0.06,0.14-0.08,0.29-0.08,0.45c0,0.23,0.05,0.43,0.16,0.6
				c0.11,0.17,0.25,0.31,0.43,0.44c0.18,0.13,0.38,0.25,0.61,0.35c0.23,0.11,0.46,0.21,0.69,0.32c0.24,0.11,0.47,0.23,0.69,0.36
				c0.23,0.13,0.43,0.29,0.61,0.46c0.18,0.18,0.32,0.39,0.43,0.63C174.55,10.28,174.6,10.56,174.6,10.89z"/>
			<path class="st0" d="M177.24,5.34c0,0.25-0.05,0.42-0.14,0.51c-0.09,0.09-0.27,0.14-0.52,0.14c-0.25,0-0.42-0.04-0.51-0.13
				c-0.09-0.09-0.14-0.25-0.14-0.5c0-0.25,0.05-0.42,0.14-0.51c0.09-0.09,0.27-0.13,0.52-0.13c0.25,0,0.42,0.04,0.51,0.13
				C177.19,4.93,177.24,5.1,177.24,5.34z M177.11,13.06c0,0.03-0.01,0.06-0.02,0.09c-0.02,0.02-0.05,0.04-0.08,0.06
				c-0.04,0.02-0.09,0.03-0.16,0.04c-0.07,0.01-0.16,0.01-0.26,0.01c-0.1,0-0.19,0-0.26-0.01c-0.07-0.01-0.12-0.02-0.16-0.04
				s-0.07-0.04-0.08-0.06c-0.02-0.02-0.02-0.05-0.02-0.09V7.29c0-0.03,0.01-0.06,0.02-0.08c0.01-0.03,0.04-0.05,0.08-0.06
				c0.04-0.02,0.09-0.03,0.16-0.04c0.07-0.01,0.15-0.01,0.26-0.01c0.11,0,0.19,0,0.26,0.01c0.07,0.01,0.12,0.02,0.16,0.04
				c0.04,0.02,0.07,0.04,0.08,0.06c0.02,0.02,0.02,0.05,0.02,0.08V13.06z"/>
			<path class="st0" d="M184.04,13.06c0,0.03-0.01,0.06-0.03,0.09c-0.02,0.02-0.04,0.04-0.08,0.06c-0.04,0.02-0.09,0.03-0.16,0.04
				c-0.07,0.01-0.15,0.01-0.26,0.01c-0.11,0-0.19,0-0.26-0.01c-0.07-0.01-0.12-0.02-0.16-0.04c-0.04-0.02-0.07-0.04-0.08-0.06
				c-0.02-0.02-0.03-0.05-0.03-0.09V9.68c0-0.33-0.02-0.59-0.08-0.79c-0.05-0.2-0.13-0.37-0.22-0.52c-0.1-0.15-0.23-0.26-0.38-0.33
				c-0.16-0.08-0.34-0.12-0.54-0.12c-0.26,0-0.53,0.09-0.79,0.28c-0.26,0.19-0.54,0.46-0.83,0.83v4.03c0,0.03-0.01,0.06-0.02,0.09
				c-0.02,0.02-0.05,0.04-0.08,0.06c-0.04,0.02-0.09,0.03-0.16,0.04c-0.07,0.01-0.16,0.01-0.26,0.01c-0.1,0-0.19,0-0.26-0.01
				c-0.07-0.01-0.12-0.02-0.16-0.04s-0.07-0.04-0.08-0.06c-0.02-0.02-0.02-0.05-0.02-0.09V7.29c0-0.03,0.01-0.06,0.02-0.09
				c0.01-0.02,0.04-0.05,0.08-0.06c0.04-0.02,0.09-0.03,0.15-0.04c0.06-0.01,0.14-0.01,0.24-0.01c0.09,0,0.17,0,0.23,0.01
				c0.06,0.01,0.11,0.02,0.14,0.04c0.03,0.02,0.06,0.04,0.07,0.06c0.02,0.02,0.02,0.05,0.02,0.09v0.76c0.33-0.36,0.65-0.63,0.97-0.8
				c0.32-0.17,0.65-0.25,0.98-0.25c0.38,0,0.71,0.07,0.97,0.2c0.26,0.13,0.47,0.3,0.64,0.52c0.16,0.22,0.28,0.47,0.35,0.77
				c0.07,0.29,0.11,0.64,0.11,1.05V13.06z"/>
			<path class="st0" d="M190.11,12.18c0,0.07,0,0.14-0.01,0.19c0,0.05-0.01,0.1-0.02,0.13c-0.01,0.04-0.02,0.07-0.04,0.1
				c-0.01,0.03-0.05,0.07-0.1,0.12c-0.05,0.05-0.14,0.12-0.27,0.2c-0.13,0.08-0.27,0.15-0.43,0.21c-0.16,0.06-0.33,0.11-0.52,0.15
				c-0.19,0.04-0.38,0.06-0.58,0.06c-0.41,0-0.78-0.07-1.1-0.2c-0.32-0.14-0.59-0.34-0.8-0.6c-0.21-0.26-0.38-0.59-0.49-0.97
				c-0.11-0.38-0.17-0.82-0.17-1.32c0-0.57,0.07-1.06,0.21-1.46c0.14-0.41,0.33-0.74,0.57-1c0.24-0.26,0.52-0.45,0.85-0.58
				c0.33-0.13,0.68-0.19,1.06-0.19c0.18,0,0.36,0.02,0.54,0.05c0.17,0.03,0.33,0.08,0.48,0.13c0.14,0.06,0.27,0.12,0.39,0.19
				c0.11,0.07,0.2,0.13,0.25,0.19c0.05,0.05,0.09,0.09,0.11,0.12c0.02,0.03,0.04,0.07,0.05,0.11c0.01,0.04,0.02,0.09,0.02,0.14
				c0,0.05,0.01,0.12,0.01,0.19c0,0.17-0.02,0.28-0.06,0.35c-0.04,0.07-0.09,0.1-0.14,0.1c-0.06,0-0.14-0.04-0.22-0.11
				c-0.08-0.07-0.19-0.15-0.32-0.23c-0.13-0.09-0.28-0.16-0.47-0.23c-0.18-0.07-0.4-0.11-0.64-0.11c-0.51,0-0.9,0.19-1.17,0.59
				c-0.27,0.39-0.41,0.96-0.41,1.7c0,0.37,0.04,0.7,0.11,0.98c0.07,0.28,0.17,0.51,0.31,0.7c0.14,0.19,0.3,0.33,0.5,0.42
				c0.2,0.09,0.43,0.14,0.68,0.14c0.24,0,0.46-0.04,0.64-0.12c0.18-0.08,0.34-0.16,0.48-0.25c0.13-0.09,0.25-0.17,0.34-0.25
				c0.09-0.07,0.16-0.11,0.21-0.11c0.03,0,0.06,0.01,0.08,0.03c0.02,0.02,0.04,0.05,0.05,0.09c0.02,0.04,0.03,0.09,0.03,0.15
				C190.11,12.02,190.11,12.1,190.11,12.18z"/>
			<path class="st0" d="M196.44,9.93c0,0.17-0.04,0.29-0.12,0.36c-0.08,0.07-0.18,0.11-0.29,0.11h-3.8c0,0.32,0.03,0.61,0.1,0.87
				c0.07,0.26,0.17,0.48,0.32,0.66c0.15,0.18,0.35,0.32,0.59,0.42c0.24,0.1,0.53,0.15,0.88,0.15c0.28,0,0.52-0.02,0.73-0.07
				c0.21-0.04,0.4-0.09,0.56-0.15c0.16-0.05,0.28-0.11,0.39-0.15c0.1-0.05,0.18-0.07,0.23-0.07c0.03,0,0.06,0.01,0.08,0.02
				c0.02,0.02,0.04,0.04,0.06,0.07c0.01,0.03,0.02,0.07,0.03,0.12c0.01,0.05,0.01,0.12,0.01,0.19c0,0.06,0,0.1-0.01,0.14
				c0,0.04-0.01,0.08-0.02,0.11c-0.01,0.03-0.02,0.06-0.03,0.09c-0.01,0.02-0.03,0.05-0.06,0.07c-0.02,0.02-0.09,0.06-0.21,0.12
				c-0.12,0.05-0.26,0.11-0.45,0.16c-0.18,0.05-0.4,0.1-0.64,0.14c-0.24,0.04-0.5,0.06-0.77,0.06c-0.47,0-0.89-0.07-1.25-0.2
				c-0.36-0.13-0.66-0.33-0.9-0.59c-0.24-0.26-0.43-0.59-0.55-0.98c-0.12-0.39-0.19-0.85-0.19-1.37c0-0.5,0.06-0.94,0.19-1.34
				c0.13-0.4,0.31-0.73,0.55-1.01c0.24-0.28,0.53-0.49,0.88-0.64C193.09,7.08,193.48,7,193.9,7c0.45,0,0.84,0.07,1.16,0.22
				c0.32,0.14,0.58,0.34,0.78,0.59c0.21,0.25,0.36,0.53,0.45,0.87c0.1,0.33,0.14,0.69,0.14,1.06V9.93z M195.37,9.61
				c0.01-0.56-0.11-0.99-0.37-1.31c-0.26-0.32-0.65-0.48-1.16-0.48c-0.26,0-0.49,0.05-0.69,0.15c-0.2,0.1-0.36,0.23-0.5,0.39
				c-0.13,0.16-0.24,0.35-0.31,0.57c-0.07,0.22-0.11,0.44-0.12,0.68H195.37z"/>
			<path class="st0" d="M205.97,12.79c0,0.08-0.01,0.15-0.02,0.2c-0.01,0.06-0.03,0.1-0.05,0.14c-0.02,0.03-0.05,0.06-0.07,0.07
				c-0.03,0.02-0.06,0.02-0.09,0.02h-4.33c-0.03,0-0.06-0.01-0.08-0.02c-0.02-0.02-0.05-0.04-0.07-0.07
				c-0.02-0.03-0.04-0.08-0.05-0.14c-0.01-0.05-0.02-0.12-0.02-0.2c0-0.08,0.01-0.14,0.02-0.2c0.01-0.05,0.03-0.1,0.05-0.14
				c0.02-0.04,0.04-0.06,0.07-0.08c0.03-0.02,0.06-0.03,0.09-0.03h1.73V6.03l-1.6,0.95c-0.08,0.04-0.15,0.07-0.19,0.08
				c-0.05,0.01-0.09,0-0.12-0.03c-0.03-0.03-0.05-0.07-0.06-0.14c-0.01-0.06-0.02-0.14-0.02-0.24c0-0.07,0-0.13,0.01-0.19
				c0.01-0.05,0.02-0.1,0.03-0.13c0.01-0.03,0.03-0.06,0.05-0.09c0.02-0.03,0.05-0.05,0.09-0.08l1.91-1.22
				c0.02-0.01,0.04-0.02,0.06-0.03c0.03-0.01,0.06-0.02,0.1-0.02c0.04-0.01,0.08-0.01,0.14-0.02c0.05,0,0.12,0,0.19,0
				c0.1,0,0.19,0,0.26,0.01c0.07,0.01,0.12,0.02,0.16,0.04c0.04,0.02,0.06,0.03,0.08,0.06c0.01,0.02,0.02,0.05,0.02,0.07v7.29h1.5
				c0.03,0,0.07,0.01,0.1,0.03c0.03,0.02,0.05,0.05,0.07,0.08c0.02,0.04,0.03,0.08,0.05,0.14
				C205.97,12.64,205.97,12.71,205.97,12.79z"/>
			<path class="st0" d="M212.67,8.75c0,0.36-0.02,0.72-0.06,1.09c-0.04,0.37-0.12,0.72-0.22,1.06c-0.1,0.34-0.24,0.66-0.41,0.95
				c-0.17,0.3-0.39,0.56-0.65,0.78c-0.26,0.22-0.57,0.4-0.94,0.52c-0.36,0.13-0.78,0.19-1.26,0.19c-0.18,0-0.36-0.01-0.54-0.03
				c-0.17-0.02-0.33-0.05-0.47-0.09c-0.14-0.03-0.26-0.07-0.35-0.11c-0.09-0.04-0.16-0.08-0.21-0.12c-0.04-0.04-0.07-0.09-0.09-0.16
				c-0.02-0.07-0.03-0.16-0.03-0.27c0-0.09,0-0.17,0.01-0.22c0.01-0.06,0.02-0.1,0.03-0.13c0.01-0.03,0.03-0.05,0.05-0.06
				c0.02-0.01,0.05-0.02,0.09-0.02c0.05,0,0.11,0.02,0.2,0.05c0.09,0.03,0.19,0.07,0.32,0.11c0.13,0.04,0.28,0.07,0.46,0.11
				c0.18,0.03,0.37,0.05,0.59,0.05c0.41,0,0.77-0.08,1.07-0.24c0.3-0.16,0.54-0.38,0.73-0.64c0.19-0.27,0.33-0.58,0.42-0.94
				c0.09-0.36,0.15-0.73,0.15-1.12c-0.23,0.13-0.5,0.25-0.81,0.35c-0.32,0.1-0.68,0.15-1.09,0.15c-0.46,0-0.85-0.06-1.16-0.19
				c-0.31-0.13-0.57-0.3-0.76-0.52c-0.19-0.22-0.33-0.48-0.41-0.78c-0.08-0.3-0.12-0.63-0.12-0.98c0-0.37,0.05-0.72,0.16-1.05
				c0.11-0.33,0.27-0.62,0.5-0.88c0.23-0.25,0.51-0.45,0.86-0.6c0.35-0.15,0.77-0.22,1.26-0.22c0.35,0,0.65,0.04,0.92,0.13
				c0.27,0.09,0.5,0.21,0.69,0.38c0.2,0.16,0.36,0.36,0.5,0.6c0.14,0.23,0.25,0.5,0.33,0.79c0.08,0.3,0.14,0.62,0.18,0.96
				C212.65,8.01,212.67,8.37,212.67,8.75z M211.55,8.63c0-0.55-0.04-1.01-0.11-1.38c-0.07-0.37-0.18-0.68-0.32-0.91
				c-0.14-0.23-0.31-0.4-0.52-0.5c-0.21-0.1-0.44-0.15-0.71-0.15c-0.28,0-0.52,0.05-0.71,0.15c-0.2,0.1-0.36,0.24-0.48,0.4
				c-0.13,0.17-0.22,0.36-0.28,0.57c-0.06,0.21-0.09,0.43-0.09,0.66c0,0.25,0.03,0.48,0.08,0.69c0.05,0.21,0.14,0.39,0.26,0.53
				c0.12,0.14,0.28,0.26,0.47,0.34c0.19,0.08,0.43,0.12,0.71,0.12c0.32,0,0.63-0.05,0.93-0.14C211.07,8.91,211.33,8.78,211.55,8.63z
				"/>
			<path class="st0" d="M219.32,8.75c0,0.36-0.02,0.72-0.06,1.09c-0.04,0.37-0.12,0.72-0.22,1.06c-0.1,0.34-0.24,0.66-0.41,0.95
				c-0.17,0.3-0.39,0.56-0.65,0.78c-0.26,0.22-0.57,0.4-0.94,0.52c-0.36,0.13-0.78,0.19-1.26,0.19c-0.18,0-0.36-0.01-0.54-0.03
				c-0.17-0.02-0.33-0.05-0.47-0.09c-0.14-0.03-0.26-0.07-0.35-0.11c-0.09-0.04-0.16-0.08-0.21-0.12c-0.04-0.04-0.07-0.09-0.09-0.16
				c-0.02-0.07-0.03-0.16-0.03-0.27c0-0.09,0-0.17,0.01-0.22c0.01-0.06,0.02-0.1,0.03-0.13c0.01-0.03,0.03-0.05,0.05-0.06
				c0.02-0.01,0.05-0.02,0.09-0.02c0.05,0,0.11,0.02,0.2,0.05c0.09,0.03,0.19,0.07,0.32,0.11c0.13,0.04,0.28,0.07,0.46,0.11
				c0.18,0.03,0.37,0.05,0.59,0.05c0.41,0,0.77-0.08,1.07-0.24c0.3-0.16,0.54-0.38,0.73-0.64c0.19-0.27,0.33-0.58,0.42-0.94
				c0.09-0.36,0.15-0.73,0.15-1.12c-0.23,0.13-0.5,0.25-0.81,0.35c-0.32,0.1-0.68,0.15-1.09,0.15c-0.46,0-0.85-0.06-1.16-0.19
				c-0.31-0.13-0.57-0.3-0.76-0.52c-0.19-0.22-0.33-0.48-0.41-0.78c-0.08-0.3-0.12-0.63-0.12-0.98c0-0.37,0.05-0.72,0.16-1.05
				c0.11-0.33,0.27-0.62,0.5-0.88c0.23-0.25,0.51-0.45,0.86-0.6c0.35-0.15,0.77-0.22,1.26-0.22c0.35,0,0.65,0.04,0.92,0.13
				c0.27,0.09,0.5,0.21,0.69,0.38c0.2,0.16,0.36,0.36,0.5,0.6c0.14,0.23,0.25,0.5,0.33,0.79c0.08,0.3,0.14,0.62,0.18,0.96
				C219.31,8.01,219.32,8.37,219.32,8.75z M218.2,8.63c0-0.55-0.04-1.01-0.11-1.38c-0.07-0.37-0.18-0.68-0.32-0.91
				c-0.14-0.23-0.31-0.4-0.52-0.5c-0.21-0.1-0.44-0.15-0.71-0.15c-0.28,0-0.52,0.05-0.71,0.15c-0.2,0.1-0.36,0.24-0.48,0.4
				c-0.13,0.17-0.22,0.36-0.28,0.57c-0.06,0.21-0.09,0.43-0.09,0.66c0,0.25,0.03,0.48,0.08,0.69c0.05,0.21,0.14,0.39,0.26,0.53
				c0.12,0.14,0.28,0.26,0.47,0.34c0.19,0.08,0.43,0.12,0.71,0.12c0.32,0,0.63-0.05,0.93-0.14C217.73,8.91,217.98,8.78,218.2,8.63z"
				/>
			<path class="st0" d="M225.87,10.55c0,0.45-0.07,0.84-0.22,1.19c-0.15,0.35-0.36,0.64-0.63,0.88c-0.27,0.24-0.6,0.42-0.98,0.54
				c-0.38,0.12-0.8,0.19-1.26,0.19c-0.26,0-0.5-0.02-0.73-0.05c-0.23-0.04-0.44-0.08-0.62-0.13c-0.18-0.05-0.33-0.11-0.44-0.16
				c-0.12-0.05-0.19-0.09-0.22-0.12c-0.03-0.03-0.05-0.06-0.07-0.08c-0.01-0.02-0.03-0.06-0.04-0.09c-0.01-0.04-0.02-0.08-0.02-0.14
				c0-0.06-0.01-0.12-0.01-0.2c0-0.07,0-0.14,0.01-0.19c0.01-0.06,0.02-0.1,0.04-0.14c0.02-0.04,0.04-0.06,0.06-0.08
				c0.02-0.02,0.05-0.03,0.08-0.03c0.04,0,0.11,0.03,0.2,0.08c0.09,0.05,0.21,0.11,0.36,0.17c0.15,0.06,0.34,0.12,0.56,0.18
				c0.22,0.05,0.49,0.08,0.8,0.08c0.29,0,0.55-0.03,0.79-0.1c0.24-0.07,0.45-0.17,0.62-0.32c0.17-0.15,0.31-0.33,0.41-0.55
				c0.1-0.22,0.15-0.49,0.15-0.8c0-0.26-0.04-0.5-0.13-0.7c-0.08-0.2-0.21-0.37-0.38-0.51c-0.17-0.13-0.39-0.24-0.66-0.3
				c-0.26-0.07-0.58-0.1-0.95-0.1c-0.26,0-0.48,0.01-0.67,0.04c-0.19,0.03-0.36,0.04-0.53,0.04c-0.12,0-0.21-0.03-0.26-0.08
				c-0.05-0.05-0.08-0.16-0.08-0.32V5.34c0-0.14,0.03-0.25,0.1-0.31c0.07-0.07,0.16-0.1,0.28-0.1h3.67c0.03,0,0.07,0.01,0.1,0.03
				c0.03,0.02,0.06,0.05,0.08,0.09c0.02,0.04,0.04,0.09,0.05,0.15c0.01,0.06,0.02,0.13,0.02,0.21c0,0.15-0.02,0.27-0.06,0.36
				c-0.04,0.09-0.1,0.13-0.17,0.13h-2.96v2.33c0.14-0.02,0.29-0.03,0.44-0.04c0.15,0,0.32-0.01,0.52-0.01c0.46,0,0.86,0.06,1.2,0.17
				c0.34,0.11,0.63,0.27,0.85,0.48c0.23,0.21,0.4,0.46,0.52,0.75C225.82,9.87,225.87,10.2,225.87,10.55z"/>
		</g>
	</g>
	<g>
		<g>
			<g>
				<g>
					<path class="st2" d="M45.74,43.01c0,0.29-0.04,0.55-0.12,0.79c-0.08,0.24-0.19,0.44-0.33,0.63c-0.14,0.18-0.31,0.34-0.51,0.47
						c-0.2,0.13-0.41,0.24-0.65,0.32c-0.24,0.08-0.49,0.15-0.75,0.19c-0.27,0.04-0.57,0.06-0.89,0.06h-2.17
						c-0.14,0-0.26-0.04-0.35-0.12c-0.09-0.08-0.14-0.22-0.14-0.4v-7.12c0-0.19,0.05-0.32,0.14-0.4c0.09-0.08,0.21-0.12,0.35-0.12
						h2.05c0.5,0,0.93,0.04,1.27,0.13c0.35,0.08,0.64,0.21,0.88,0.38c0.24,0.17,0.42,0.39,0.55,0.65c0.13,0.26,0.19,0.57,0.19,0.92
						c0,0.2-0.03,0.38-0.08,0.56c-0.05,0.17-0.12,0.33-0.22,0.48c-0.1,0.14-0.22,0.27-0.36,0.38c-0.14,0.11-0.3,0.2-0.48,0.27
						c0.23,0.04,0.45,0.12,0.64,0.22c0.2,0.11,0.37,0.24,0.51,0.41c0.15,0.17,0.26,0.36,0.34,0.58
						C45.69,42.49,45.74,42.74,45.74,43.01z M43.59,39.57c0-0.16-0.02-0.31-0.08-0.44c-0.05-0.13-0.13-0.24-0.23-0.33
						c-0.1-0.09-0.23-0.15-0.38-0.2c-0.15-0.05-0.36-0.07-0.62-0.07h-0.84v2.12h0.93c0.24,0,0.43-0.03,0.57-0.09
						c0.14-0.06,0.26-0.13,0.36-0.23c0.09-0.1,0.16-0.21,0.21-0.35C43.57,39.86,43.59,39.72,43.59,39.57z M44.01,43.07
						c0-0.19-0.03-0.36-0.09-0.51c-0.06-0.15-0.16-0.27-0.28-0.38c-0.12-0.1-0.28-0.18-0.47-0.23c-0.19-0.06-0.44-0.08-0.74-0.08
						h-0.99v2.32h1.2c0.23,0,0.43-0.02,0.58-0.07c0.16-0.05,0.29-0.12,0.41-0.21c0.12-0.09,0.21-0.21,0.27-0.35
						C43.98,43.41,44.01,43.25,44.01,43.07z"/>
					<path class="st2" d="M53.95,42.42c0,0.5-0.07,0.95-0.22,1.35c-0.15,0.4-0.36,0.73-0.65,1c-0.29,0.27-0.64,0.48-1.06,0.63
						c-0.42,0.14-0.91,0.21-1.45,0.21c-0.51,0-0.97-0.06-1.38-0.19c-0.41-0.13-0.75-0.32-1.04-0.58c-0.28-0.26-0.5-0.59-0.65-0.98
						c-0.15-0.39-0.22-0.85-0.22-1.37v-4.97c0-0.04,0.01-0.08,0.04-0.11c0.02-0.03,0.07-0.06,0.14-0.08
						c0.07-0.02,0.15-0.04,0.26-0.05c0.11-0.01,0.24-0.02,0.4-0.02c0.16,0,0.29,0.01,0.4,0.02c0.1,0.01,0.19,0.03,0.25,0.05
						c0.06,0.02,0.11,0.05,0.14,0.08c0.03,0.03,0.04,0.07,0.04,0.11v4.83c0,0.32,0.04,0.61,0.12,0.84c0.08,0.24,0.2,0.44,0.34,0.59
						c0.15,0.16,0.33,0.27,0.54,0.35c0.21,0.08,0.44,0.12,0.7,0.12c0.26,0,0.49-0.04,0.7-0.12c0.21-0.08,0.38-0.2,0.52-0.35
						c0.14-0.15,0.25-0.34,0.33-0.57c0.08-0.23,0.12-0.48,0.12-0.77v-4.92c0-0.04,0.01-0.08,0.04-0.11
						c0.03-0.03,0.07-0.06,0.13-0.08c0.06-0.02,0.15-0.04,0.26-0.05c0.11-0.01,0.24-0.02,0.4-0.02c0.16,0,0.29,0.01,0.39,0.02
						c0.1,0.01,0.19,0.03,0.25,0.05c0.06,0.02,0.11,0.05,0.13,0.08c0.03,0.03,0.04,0.07,0.04,0.11V42.42z"/>
					<path class="st2" d="M57.59,45.24c0,0.04-0.01,0.08-0.04,0.11c-0.03,0.03-0.07,0.06-0.14,0.08c-0.06,0.02-0.15,0.04-0.25,0.05
						c-0.11,0.01-0.24,0.02-0.4,0.02c-0.16,0-0.29-0.01-0.4-0.02c-0.11-0.01-0.19-0.03-0.26-0.05c-0.06-0.02-0.11-0.05-0.14-0.08
						c-0.03-0.03-0.04-0.07-0.04-0.11v-7.72c0-0.04,0.01-0.08,0.04-0.11c0.03-0.03,0.07-0.06,0.14-0.08
						c0.06-0.02,0.15-0.04,0.26-0.05c0.11-0.01,0.24-0.02,0.4-0.02c0.16,0,0.3,0.01,0.4,0.02c0.11,0.01,0.19,0.03,0.25,0.05
						c0.06,0.02,0.11,0.05,0.14,0.08c0.03,0.03,0.04,0.07,0.04,0.11V45.24z"/>
					<path class="st2" d="M64.07,44.77c0,0.13-0.01,0.23-0.02,0.32c-0.01,0.09-0.03,0.16-0.05,0.21c-0.02,0.06-0.05,0.1-0.08,0.12
						c-0.03,0.03-0.07,0.04-0.11,0.04h-3.75c-0.14,0-0.26-0.04-0.35-0.12c-0.09-0.08-0.14-0.22-0.14-0.4v-7.42
						c0-0.04,0.01-0.08,0.04-0.11c0.03-0.03,0.07-0.06,0.14-0.08c0.06-0.02,0.15-0.04,0.26-0.05c0.11-0.01,0.24-0.02,0.4-0.02
						c0.16,0,0.3,0.01,0.4,0.02c0.11,0.01,0.19,0.03,0.25,0.05c0.06,0.02,0.11,0.05,0.14,0.08c0.03,0.03,0.04,0.07,0.04,0.11v6.58
						h2.57c0.04,0,0.08,0.01,0.11,0.03c0.03,0.02,0.06,0.06,0.08,0.11c0.02,0.05,0.04,0.12,0.05,0.21
						C64.07,44.54,64.07,44.64,64.07,44.77z"/>
					<path class="st2" d="M72.05,41.26c0,0.75-0.1,1.39-0.29,1.92c-0.2,0.53-0.48,0.97-0.84,1.3c-0.37,0.34-0.81,0.58-1.34,0.74
						c-0.52,0.16-1.15,0.24-1.87,0.24h-1.95c-0.14,0-0.26-0.04-0.35-0.12c-0.09-0.08-0.14-0.22-0.14-0.4v-7.12
						c0-0.19,0.05-0.32,0.14-0.4c0.09-0.08,0.21-0.12,0.35-0.12h2.1c0.73,0,1.35,0.09,1.85,0.26c0.51,0.17,0.93,0.42,1.28,0.76
						c0.35,0.34,0.61,0.75,0.79,1.24C71.96,40.04,72.05,40.61,72.05,41.26z M70.33,41.32c0-0.39-0.05-0.75-0.14-1.08
						c-0.09-0.33-0.24-0.62-0.44-0.87c-0.2-0.24-0.46-0.43-0.77-0.57c-0.31-0.14-0.73-0.21-1.24-0.21h-0.84v5.56h0.87
						c0.45,0,0.84-0.06,1.15-0.18c0.31-0.12,0.57-0.3,0.78-0.53c0.21-0.24,0.36-0.53,0.47-0.89C70.28,42.2,70.33,41.79,70.33,41.32z
						"/>
					<path class="st2" d="M75.29,45.24c0,0.04-0.01,0.08-0.04,0.11c-0.03,0.03-0.07,0.06-0.14,0.08c-0.06,0.02-0.15,0.04-0.25,0.05
						c-0.11,0.01-0.24,0.02-0.4,0.02c-0.16,0-0.29-0.01-0.4-0.02c-0.11-0.01-0.19-0.03-0.26-0.05c-0.06-0.02-0.11-0.05-0.14-0.08
						c-0.03-0.03-0.04-0.07-0.04-0.11v-7.72c0-0.04,0.01-0.08,0.04-0.11c0.03-0.03,0.07-0.06,0.14-0.08
						c0.06-0.02,0.15-0.04,0.26-0.05c0.11-0.01,0.24-0.02,0.4-0.02c0.16,0,0.3,0.01,0.4,0.02c0.11,0.01,0.19,0.03,0.25,0.05
						c0.06,0.02,0.11,0.05,0.14,0.08c0.03,0.03,0.04,0.07,0.04,0.11V45.24z"/>
					<path class="st2" d="M84.02,44.88c0,0.1-0.02,0.18-0.05,0.26c-0.03,0.08-0.08,0.14-0.14,0.19c-0.06,0.05-0.12,0.09-0.2,0.11
						c-0.08,0.02-0.16,0.03-0.24,0.03h-0.71c-0.15,0-0.27-0.01-0.38-0.04c-0.11-0.03-0.21-0.08-0.3-0.16
						c-0.09-0.08-0.18-0.18-0.26-0.32c-0.08-0.13-0.18-0.3-0.28-0.51l-2.03-3.82c-0.12-0.23-0.24-0.47-0.36-0.74
						c-0.12-0.26-0.23-0.52-0.33-0.77h-0.01c0.02,0.3,0.03,0.61,0.04,0.91c0.01,0.3,0.01,0.61,0.01,0.93v4.28
						c0,0.04-0.01,0.08-0.03,0.11c-0.02,0.03-0.06,0.06-0.12,0.09c-0.06,0.02-0.13,0.04-0.23,0.05c-0.1,0.01-0.22,0.02-0.37,0.02
						c-0.15,0-0.27-0.01-0.37-0.02c-0.1-0.01-0.17-0.03-0.23-0.05c-0.05-0.02-0.09-0.05-0.11-0.09c-0.02-0.03-0.03-0.07-0.03-0.11
						v-7.35c0-0.2,0.06-0.35,0.17-0.45c0.12-0.1,0.26-0.15,0.43-0.15h0.89c0.16,0,0.29,0.01,0.4,0.04c0.11,0.03,0.21,0.07,0.29,0.14
						c0.09,0.06,0.17,0.15,0.24,0.26c0.08,0.11,0.15,0.25,0.23,0.41l1.59,2.99c0.09,0.18,0.18,0.36,0.27,0.53
						c0.09,0.17,0.18,0.35,0.26,0.52c0.08,0.17,0.17,0.35,0.25,0.51c0.08,0.17,0.16,0.34,0.23,0.51h0.01
						c-0.01-0.29-0.02-0.6-0.03-0.92c-0.01-0.32-0.01-0.63-0.01-0.92v-3.83c0-0.04,0.01-0.08,0.04-0.11
						c0.03-0.03,0.07-0.06,0.13-0.09c0.06-0.02,0.14-0.04,0.23-0.05c0.1-0.01,0.22-0.02,0.37-0.02c0.14,0,0.26,0.01,0.36,0.02
						c0.1,0.01,0.17,0.03,0.22,0.05c0.05,0.03,0.09,0.05,0.11,0.09c0.02,0.03,0.03,0.07,0.03,0.11V44.88z"/>
					<path class="st2" d="M92.56,38.56c0,0.12-0.01,0.23-0.02,0.32c-0.01,0.09-0.03,0.16-0.04,0.21c-0.02,0.05-0.04,0.09-0.07,0.11
						c-0.03,0.02-0.06,0.03-0.1,0.03c-0.05,0-0.14-0.04-0.27-0.11c-0.12-0.08-0.28-0.16-0.49-0.25c-0.2-0.09-0.44-0.17-0.72-0.25
						c-0.28-0.08-0.61-0.11-0.98-0.11c-0.4,0-0.75,0.07-1.07,0.21c-0.32,0.14-0.59,0.33-0.82,0.58c-0.23,0.25-0.4,0.55-0.52,0.9
						c-0.12,0.35-0.18,0.74-0.18,1.17c0,0.47,0.06,0.88,0.19,1.23c0.12,0.36,0.3,0.65,0.52,0.89c0.22,0.24,0.49,0.42,0.81,0.54
						c0.31,0.12,0.66,0.18,1.04,0.18c0.19,0,0.37-0.02,0.55-0.06c0.18-0.04,0.35-0.11,0.51-0.19v-1.89h-1.55
						c-0.08,0-0.13-0.05-0.18-0.14c-0.04-0.09-0.06-0.26-0.06-0.48c0-0.12,0.01-0.22,0.02-0.3c0.01-0.08,0.03-0.14,0.05-0.19
						c0.02-0.05,0.05-0.08,0.08-0.11c0.03-0.02,0.06-0.03,0.1-0.03h2.76c0.07,0,0.13,0.01,0.18,0.03c0.05,0.02,0.1,0.06,0.14,0.1
						c0.04,0.05,0.07,0.1,0.09,0.17c0.02,0.07,0.03,0.14,0.03,0.22v3.25c0,0.13-0.02,0.24-0.07,0.33c-0.04,0.09-0.13,0.17-0.27,0.22
						c-0.14,0.05-0.31,0.11-0.51,0.17c-0.2,0.06-0.41,0.11-0.63,0.15c-0.22,0.04-0.44,0.07-0.66,0.09
						c-0.22,0.02-0.44,0.03-0.67,0.03c-0.65,0-1.24-0.09-1.75-0.28c-0.52-0.19-0.95-0.46-1.31-0.81c-0.36-0.36-0.63-0.79-0.82-1.3
						c-0.19-0.51-0.28-1.09-0.28-1.74c0-0.67,0.1-1.27,0.3-1.8c0.2-0.53,0.49-0.99,0.86-1.36c0.37-0.37,0.82-0.66,1.34-0.86
						c0.52-0.2,1.11-0.3,1.75-0.3c0.35,0,0.68,0.02,0.97,0.07c0.29,0.05,0.54,0.11,0.76,0.18c0.22,0.07,0.4,0.14,0.54,0.22
						c0.14,0.08,0.24,0.15,0.3,0.21c0.06,0.06,0.1,0.14,0.12,0.25C92.55,38.19,92.56,38.35,92.56,38.56z"/>
					<path class="st2" d="M104.28,44.85c0.05,0.15,0.08,0.27,0.09,0.36c0.01,0.09,0,0.16-0.05,0.2c-0.05,0.04-0.13,0.07-0.25,0.08
						c-0.12,0.01-0.28,0.02-0.49,0.02c-0.21,0-0.38,0-0.5-0.01c-0.12-0.01-0.21-0.02-0.27-0.04c-0.06-0.02-0.11-0.05-0.13-0.08
						c-0.03-0.03-0.05-0.08-0.06-0.13l-0.55-1.64H99l-0.52,1.6c-0.02,0.06-0.04,0.11-0.07,0.15c-0.03,0.04-0.07,0.07-0.13,0.09
						c-0.06,0.02-0.15,0.04-0.26,0.05c-0.11,0.01-0.26,0.01-0.44,0.01c-0.19,0-0.35-0.01-0.45-0.02c-0.11-0.01-0.19-0.04-0.23-0.09
						c-0.04-0.05-0.06-0.12-0.04-0.21c0.01-0.09,0.04-0.21,0.09-0.35l2.52-7.25c0.02-0.07,0.05-0.13,0.09-0.17
						c0.03-0.04,0.09-0.08,0.16-0.1c0.07-0.02,0.18-0.04,0.31-0.04c0.13-0.01,0.3-0.01,0.52-0.01c0.25,0,0.45,0,0.59,0.01
						c0.15,0.01,0.26,0.02,0.34,0.04c0.08,0.02,0.14,0.06,0.18,0.1c0.04,0.05,0.07,0.11,0.09,0.19L104.28,44.85z M100.53,38.85
						L100.53,38.85l-1.16,3.47h2.32L100.53,38.85z"/>
					<path class="st2" d="M114.68,43.01c0,0.29-0.04,0.55-0.12,0.79c-0.08,0.24-0.19,0.44-0.33,0.63c-0.14,0.18-0.31,0.34-0.51,0.47
						c-0.2,0.13-0.41,0.24-0.65,0.32c-0.24,0.08-0.49,0.15-0.75,0.19c-0.27,0.04-0.57,0.06-0.89,0.06h-2.17
						c-0.14,0-0.26-0.04-0.35-0.12c-0.09-0.08-0.14-0.22-0.14-0.4v-7.12c0-0.19,0.05-0.32,0.14-0.4c0.09-0.08,0.21-0.12,0.35-0.12
						h2.05c0.5,0,0.93,0.04,1.27,0.13c0.35,0.08,0.64,0.21,0.88,0.38c0.24,0.17,0.42,0.39,0.55,0.65c0.13,0.26,0.19,0.57,0.19,0.92
						c0,0.2-0.03,0.38-0.08,0.56c-0.05,0.17-0.12,0.33-0.22,0.48c-0.1,0.14-0.22,0.27-0.36,0.38c-0.14,0.11-0.3,0.2-0.48,0.27
						c0.23,0.04,0.45,0.12,0.64,0.22c0.2,0.11,0.37,0.24,0.51,0.41c0.15,0.17,0.26,0.36,0.34,0.58
						C114.64,42.49,114.68,42.74,114.68,43.01z M112.53,39.57c0-0.16-0.02-0.31-0.08-0.44c-0.05-0.13-0.13-0.24-0.23-0.33
						c-0.1-0.09-0.23-0.15-0.38-0.2s-0.36-0.07-0.62-0.07h-0.84v2.12h0.93c0.24,0,0.43-0.03,0.57-0.09
						c0.14-0.06,0.26-0.13,0.36-0.23c0.09-0.1,0.16-0.21,0.21-0.35C112.51,39.86,112.53,39.72,112.53,39.57z M112.96,43.07
						c0-0.19-0.03-0.36-0.09-0.51c-0.06-0.15-0.16-0.27-0.28-0.38c-0.12-0.1-0.28-0.18-0.47-0.23c-0.19-0.06-0.44-0.08-0.74-0.08
						h-0.99v2.32h1.2c0.23,0,0.43-0.02,0.58-0.07c0.16-0.05,0.29-0.12,0.41-0.21c0.12-0.09,0.21-0.21,0.27-0.35
						C112.92,43.41,112.96,43.25,112.96,43.07z"/>
					<path class="st2" d="M121.06,44.81c0,0.12-0.01,0.22-0.02,0.31c-0.01,0.08-0.03,0.15-0.05,0.2c-0.02,0.05-0.05,0.09-0.08,0.11
						c-0.03,0.02-0.07,0.03-0.1,0.03h-4.11c-0.14,0-0.26-0.04-0.35-0.12c-0.09-0.08-0.14-0.22-0.14-0.4v-7.12
						c0-0.19,0.05-0.32,0.14-0.4c0.09-0.08,0.21-0.12,0.35-0.12h4.08c0.04,0,0.07,0.01,0.1,0.03c0.03,0.02,0.05,0.06,0.08,0.11
						c0.02,0.05,0.04,0.12,0.05,0.2c0.01,0.08,0.02,0.19,0.02,0.31c0,0.12-0.01,0.22-0.02,0.3c-0.01,0.08-0.03,0.15-0.05,0.2
						c-0.02,0.05-0.05,0.09-0.08,0.11c-0.03,0.02-0.06,0.03-0.1,0.03h-2.92v2h2.47c0.04,0,0.07,0.01,0.1,0.03
						c0.03,0.02,0.06,0.06,0.08,0.11c0.02,0.05,0.04,0.11,0.05,0.2c0.01,0.08,0.02,0.18,0.02,0.3c0,0.12-0.01,0.22-0.02,0.3
						c-0.01,0.08-0.03,0.14-0.05,0.19c-0.02,0.05-0.05,0.08-0.08,0.1c-0.03,0.02-0.07,0.03-0.1,0.03h-2.47v2.31h2.94
						c0.04,0,0.07,0.01,0.1,0.03c0.03,0.02,0.06,0.06,0.08,0.11c0.02,0.05,0.04,0.12,0.05,0.2
						C121.06,44.59,121.06,44.69,121.06,44.81z"/>
					<path class="st2" d="M128.17,37.97c0,0.12-0.01,0.23-0.02,0.31c-0.01,0.09-0.03,0.16-0.05,0.21c-0.02,0.05-0.05,0.09-0.08,0.12
						c-0.03,0.03-0.07,0.04-0.1,0.04h-2.05v6.59c0,0.04-0.01,0.08-0.04,0.11c-0.03,0.03-0.07,0.06-0.14,0.08
						c-0.06,0.02-0.15,0.04-0.26,0.05c-0.11,0.01-0.24,0.02-0.4,0.02c-0.16,0-0.29-0.01-0.4-0.02c-0.11-0.01-0.19-0.03-0.26-0.05
						c-0.06-0.02-0.11-0.05-0.14-0.08c-0.03-0.03-0.04-0.07-0.04-0.11v-6.59h-2.05c-0.04,0-0.08-0.01-0.11-0.04
						c-0.03-0.02-0.05-0.06-0.08-0.12c-0.02-0.05-0.04-0.12-0.05-0.21c-0.01-0.09-0.02-0.19-0.02-0.31c0-0.13,0.01-0.23,0.02-0.32
						c0.01-0.09,0.03-0.16,0.05-0.21c0.02-0.05,0.05-0.09,0.08-0.11c0.03-0.02,0.07-0.03,0.11-0.03h5.76c0.04,0,0.07,0.01,0.1,0.03
						c0.03,0.02,0.06,0.06,0.08,0.11c0.02,0.05,0.04,0.12,0.05,0.21C128.17,37.74,128.17,37.85,128.17,37.97z"/>
					<path class="st2" d="M134.84,37.97c0,0.12-0.01,0.23-0.02,0.31c-0.01,0.09-0.03,0.16-0.05,0.21c-0.02,0.05-0.05,0.09-0.08,0.12
						c-0.03,0.03-0.07,0.04-0.1,0.04h-2.05v6.59c0,0.04-0.01,0.08-0.04,0.11c-0.03,0.03-0.07,0.06-0.14,0.08
						c-0.06,0.02-0.15,0.04-0.26,0.05c-0.11,0.01-0.24,0.02-0.4,0.02c-0.16,0-0.29-0.01-0.4-0.02c-0.11-0.01-0.19-0.03-0.26-0.05
						c-0.06-0.02-0.11-0.05-0.14-0.08c-0.03-0.03-0.04-0.07-0.04-0.11v-6.59h-2.05c-0.04,0-0.08-0.01-0.11-0.04
						c-0.03-0.02-0.06-0.06-0.08-0.12c-0.02-0.05-0.04-0.12-0.05-0.21c-0.01-0.09-0.02-0.19-0.02-0.31c0-0.13,0.01-0.23,0.02-0.32
						c0.01-0.09,0.03-0.16,0.05-0.21c0.02-0.05,0.05-0.09,0.08-0.11c0.03-0.02,0.07-0.03,0.11-0.03h5.76c0.04,0,0.07,0.01,0.1,0.03
						c0.03,0.02,0.06,0.06,0.08,0.11c0.02,0.05,0.04,0.12,0.05,0.21C134.83,37.74,134.84,37.85,134.84,37.97z"/>
					<path class="st2" d="M140.86,44.81c0,0.12-0.01,0.22-0.02,0.31c-0.01,0.08-0.03,0.15-0.05,0.2c-0.02,0.05-0.05,0.09-0.08,0.11
						c-0.03,0.02-0.07,0.03-0.1,0.03h-4.11c-0.14,0-0.26-0.04-0.35-0.12c-0.09-0.08-0.14-0.22-0.14-0.4v-7.12
						c0-0.19,0.05-0.32,0.14-0.4c0.09-0.08,0.21-0.12,0.35-0.12h4.08c0.04,0,0.07,0.01,0.1,0.03c0.03,0.02,0.05,0.06,0.08,0.11
						c0.02,0.05,0.04,0.12,0.05,0.2c0.01,0.08,0.02,0.19,0.02,0.31c0,0.12-0.01,0.22-0.02,0.3c-0.01,0.08-0.03,0.15-0.05,0.2
						c-0.02,0.05-0.05,0.09-0.08,0.11c-0.03,0.02-0.06,0.03-0.1,0.03h-2.92v2h2.47c0.04,0,0.07,0.01,0.1,0.03
						c0.03,0.02,0.06,0.06,0.08,0.11c0.02,0.05,0.04,0.11,0.05,0.2c0.01,0.08,0.02,0.18,0.02,0.3c0,0.12-0.01,0.22-0.02,0.3
						c-0.01,0.08-0.03,0.14-0.05,0.19c-0.02,0.05-0.05,0.08-0.08,0.1c-0.03,0.02-0.07,0.03-0.1,0.03h-2.47v2.31h2.94
						c0.04,0,0.07,0.01,0.1,0.03c0.03,0.02,0.06,0.06,0.08,0.11c0.02,0.05,0.04,0.12,0.05,0.2
						C140.85,44.59,140.86,44.69,140.86,44.81z"/>
					<path class="st2" d="M148.59,45.25c0,0.05-0.01,0.09-0.03,0.12c-0.02,0.03-0.06,0.06-0.12,0.08c-0.06,0.02-0.16,0.04-0.28,0.04
						c-0.12,0.01-0.29,0.01-0.5,0.01c-0.18,0-0.32,0-0.42-0.01c-0.11-0.01-0.19-0.02-0.25-0.05c-0.06-0.02-0.1-0.05-0.13-0.09
						c-0.03-0.04-0.05-0.08-0.06-0.13l-0.73-1.82c-0.09-0.21-0.17-0.39-0.26-0.55c-0.08-0.16-0.18-0.29-0.28-0.4
						c-0.1-0.11-0.22-0.19-0.36-0.24c-0.13-0.05-0.29-0.08-0.47-0.08h-0.52v3.11c0,0.04-0.01,0.08-0.04,0.11
						c-0.03,0.03-0.07,0.06-0.14,0.08c-0.06,0.02-0.15,0.04-0.25,0.05c-0.11,0.01-0.24,0.02-0.4,0.02c-0.16,0-0.29-0.01-0.4-0.02
						c-0.11-0.01-0.19-0.03-0.26-0.05c-0.06-0.02-0.11-0.05-0.13-0.08c-0.02-0.03-0.04-0.07-0.04-0.11v-7.42
						c0-0.19,0.05-0.32,0.14-0.4c0.09-0.08,0.21-0.12,0.35-0.12h2.12c0.21,0,0.39,0,0.53,0.01c0.14,0.01,0.27,0.02,0.38,0.03
						c0.33,0.05,0.62,0.13,0.89,0.24c0.26,0.11,0.49,0.26,0.67,0.45c0.18,0.18,0.32,0.4,0.42,0.65c0.1,0.25,0.14,0.54,0.14,0.86
						c0,0.27-0.03,0.52-0.1,0.75c-0.07,0.23-0.17,0.43-0.31,0.6c-0.13,0.18-0.3,0.33-0.5,0.46c-0.2,0.13-0.42,0.24-0.68,0.32
						c0.12,0.06,0.24,0.13,0.34,0.21c0.11,0.08,0.21,0.19,0.3,0.31c0.09,0.12,0.18,0.26,0.27,0.41c0.08,0.15,0.17,0.33,0.25,0.52
						l0.69,1.61c0.06,0.16,0.1,0.28,0.13,0.35C148.58,45.15,148.59,45.21,148.59,45.25z M146.45,39.71c0-0.27-0.06-0.5-0.18-0.68
						c-0.12-0.19-0.32-0.32-0.6-0.39c-0.08-0.02-0.18-0.04-0.29-0.05c-0.11-0.01-0.26-0.02-0.45-0.02h-0.75v2.32h0.85
						c0.24,0,0.44-0.03,0.62-0.09c0.18-0.06,0.32-0.14,0.44-0.24c0.12-0.1,0.21-0.23,0.27-0.37
						C146.42,40.04,146.45,39.88,146.45,39.71z"/>
					<path class="st2" d="M159.07,43.01c0,0.29-0.04,0.55-0.12,0.79c-0.08,0.24-0.19,0.44-0.33,0.63c-0.14,0.18-0.31,0.34-0.51,0.47
						c-0.2,0.13-0.41,0.24-0.65,0.32c-0.24,0.08-0.49,0.15-0.75,0.19c-0.27,0.04-0.57,0.06-0.89,0.06h-2.17
						c-0.14,0-0.26-0.04-0.35-0.12c-0.09-0.08-0.14-0.22-0.14-0.4v-7.12c0-0.19,0.05-0.32,0.14-0.4c0.09-0.08,0.21-0.12,0.35-0.12
						h2.05c0.5,0,0.93,0.04,1.27,0.13c0.35,0.08,0.64,0.21,0.88,0.38c0.24,0.17,0.42,0.39,0.55,0.65c0.13,0.26,0.19,0.57,0.19,0.92
						c0,0.2-0.03,0.38-0.08,0.56c-0.05,0.17-0.12,0.33-0.22,0.48c-0.1,0.14-0.22,0.27-0.36,0.38c-0.14,0.11-0.3,0.2-0.48,0.27
						c0.23,0.04,0.45,0.12,0.64,0.22c0.2,0.11,0.37,0.24,0.51,0.41c0.15,0.17,0.26,0.36,0.34,0.58
						C159.03,42.49,159.07,42.74,159.07,43.01z M156.92,39.57c0-0.16-0.02-0.31-0.08-0.44c-0.05-0.13-0.13-0.24-0.23-0.33
						c-0.1-0.09-0.23-0.15-0.38-0.2c-0.15-0.05-0.36-0.07-0.62-0.07h-0.84v2.12h0.93c0.24,0,0.43-0.03,0.57-0.09
						c0.14-0.06,0.26-0.13,0.36-0.23c0.09-0.1,0.16-0.21,0.21-0.35C156.9,39.86,156.92,39.72,156.92,39.57z M157.34,43.07
						c0-0.19-0.03-0.36-0.09-0.51c-0.06-0.15-0.16-0.27-0.28-0.38c-0.12-0.1-0.28-0.18-0.47-0.23c-0.19-0.06-0.44-0.08-0.74-0.08
						h-0.99v2.32h1.2c0.23,0,0.43-0.02,0.58-0.07c0.16-0.05,0.29-0.12,0.41-0.21c0.12-0.09,0.21-0.21,0.27-0.35
						C157.31,43.41,157.34,43.25,157.34,43.07z"/>
					<path class="st2" d="M167.18,44.85c0.05,0.15,0.08,0.27,0.09,0.36c0.01,0.09,0,0.16-0.05,0.2c-0.05,0.04-0.13,0.07-0.25,0.08
						c-0.12,0.01-0.28,0.02-0.49,0.02c-0.21,0-0.38,0-0.5-0.01c-0.12-0.01-0.21-0.02-0.27-0.04c-0.06-0.02-0.11-0.05-0.13-0.08
						c-0.03-0.03-0.05-0.08-0.06-0.13l-0.55-1.64h-3.07l-0.52,1.6c-0.02,0.06-0.04,0.11-0.07,0.15c-0.03,0.04-0.07,0.07-0.13,0.09
						c-0.06,0.02-0.15,0.04-0.26,0.05c-0.11,0.01-0.26,0.01-0.44,0.01c-0.19,0-0.35-0.01-0.45-0.02c-0.11-0.01-0.19-0.04-0.23-0.09
						c-0.04-0.05-0.06-0.12-0.04-0.21c0.01-0.09,0.04-0.21,0.09-0.35l2.52-7.25c0.02-0.07,0.05-0.13,0.09-0.17
						c0.03-0.04,0.09-0.08,0.16-0.1c0.07-0.02,0.18-0.04,0.31-0.04c0.13-0.01,0.3-0.01,0.52-0.01c0.25,0,0.45,0,0.59,0.01
						c0.15,0.01,0.26,0.02,0.34,0.04c0.08,0.02,0.14,0.06,0.18,0.1c0.04,0.05,0.07,0.11,0.09,0.19L167.18,44.85z M163.43,38.85
						L163.43,38.85l-1.16,3.47h2.32L163.43,38.85z"/>
					<path class="st2" d="M175.27,44.88c0,0.1-0.02,0.18-0.05,0.26c-0.03,0.08-0.08,0.14-0.14,0.19c-0.06,0.05-0.12,0.09-0.2,0.11
						c-0.08,0.02-0.16,0.03-0.24,0.03h-0.71c-0.15,0-0.27-0.01-0.38-0.04c-0.11-0.03-0.21-0.08-0.3-0.16
						c-0.09-0.08-0.18-0.18-0.26-0.32c-0.08-0.13-0.18-0.3-0.28-0.51l-2.03-3.82c-0.12-0.23-0.24-0.47-0.36-0.74
						c-0.12-0.26-0.23-0.52-0.33-0.77h-0.01c0.02,0.3,0.03,0.61,0.04,0.91c0.01,0.3,0.01,0.61,0.01,0.93v4.28
						c0,0.04-0.01,0.08-0.03,0.11c-0.02,0.03-0.06,0.06-0.12,0.09c-0.06,0.02-0.13,0.04-0.23,0.05c-0.1,0.01-0.22,0.02-0.37,0.02
						c-0.15,0-0.27-0.01-0.37-0.02c-0.1-0.01-0.17-0.03-0.23-0.05c-0.05-0.02-0.09-0.05-0.11-0.09c-0.02-0.03-0.03-0.07-0.03-0.11
						v-7.35c0-0.2,0.06-0.35,0.17-0.45c0.12-0.1,0.26-0.15,0.43-0.15h0.89c0.16,0,0.29,0.01,0.4,0.04c0.11,0.03,0.21,0.07,0.29,0.14
						c0.09,0.06,0.17,0.15,0.24,0.26c0.08,0.11,0.15,0.25,0.23,0.41l1.59,2.99c0.09,0.18,0.18,0.36,0.27,0.53
						c0.09,0.17,0.18,0.35,0.26,0.52c0.08,0.17,0.17,0.35,0.25,0.51c0.08,0.17,0.16,0.34,0.23,0.51h0.01
						c-0.01-0.29-0.02-0.6-0.03-0.92c-0.01-0.32-0.01-0.63-0.01-0.92v-3.83c0-0.04,0.01-0.08,0.04-0.11
						c0.03-0.03,0.07-0.06,0.13-0.09c0.06-0.02,0.14-0.04,0.23-0.05c0.1-0.01,0.22-0.02,0.37-0.02c0.14,0,0.26,0.01,0.36,0.02
						c0.1,0.01,0.17,0.03,0.22,0.05c0.05,0.03,0.09,0.05,0.11,0.09c0.02,0.03,0.03,0.07,0.03,0.11V44.88z"/>
					<path class="st2" d="M183.81,38.56c0,0.12-0.01,0.23-0.02,0.32c-0.01,0.09-0.03,0.16-0.04,0.21s-0.04,0.09-0.07,0.11
						c-0.03,0.02-0.06,0.03-0.1,0.03c-0.05,0-0.14-0.04-0.27-0.11c-0.12-0.08-0.28-0.16-0.49-0.25c-0.2-0.09-0.44-0.17-0.72-0.25
						c-0.28-0.08-0.61-0.11-0.98-0.11c-0.4,0-0.75,0.07-1.07,0.21c-0.32,0.14-0.59,0.33-0.82,0.58c-0.23,0.25-0.4,0.55-0.52,0.9
						c-0.12,0.35-0.18,0.74-0.18,1.17c0,0.47,0.06,0.88,0.19,1.23c0.12,0.36,0.3,0.65,0.52,0.89c0.22,0.24,0.49,0.42,0.81,0.54
						c0.31,0.12,0.66,0.18,1.04,0.18c0.19,0,0.37-0.02,0.55-0.06c0.18-0.04,0.35-0.11,0.51-0.19v-1.89h-1.55
						c-0.08,0-0.13-0.05-0.18-0.14c-0.04-0.09-0.06-0.26-0.06-0.48c0-0.12,0.01-0.22,0.02-0.3c0.01-0.08,0.03-0.14,0.05-0.19
						c0.02-0.05,0.05-0.08,0.08-0.11c0.03-0.02,0.06-0.03,0.1-0.03h2.76c0.07,0,0.13,0.01,0.18,0.03c0.05,0.02,0.1,0.06,0.14,0.1
						c0.04,0.05,0.07,0.1,0.09,0.17c0.02,0.07,0.03,0.14,0.03,0.22v3.25c0,0.13-0.02,0.24-0.07,0.33c-0.04,0.09-0.13,0.17-0.27,0.22
						c-0.14,0.05-0.31,0.11-0.51,0.17c-0.2,0.06-0.41,0.11-0.63,0.15c-0.22,0.04-0.44,0.07-0.66,0.09
						c-0.22,0.02-0.44,0.03-0.67,0.03c-0.65,0-1.24-0.09-1.75-0.28c-0.52-0.19-0.95-0.46-1.31-0.81c-0.36-0.36-0.63-0.79-0.82-1.3
						c-0.19-0.51-0.28-1.09-0.28-1.74c0-0.67,0.1-1.27,0.3-1.8c0.2-0.53,0.49-0.99,0.86-1.36c0.37-0.37,0.82-0.66,1.34-0.86
						c0.52-0.2,1.11-0.3,1.75-0.3c0.35,0,0.68,0.02,0.97,0.07c0.29,0.05,0.54,0.11,0.76,0.18c0.22,0.07,0.4,0.14,0.54,0.22
						c0.14,0.08,0.24,0.15,0.3,0.21c0.06,0.06,0.1,0.14,0.12,0.25C183.8,38.19,183.81,38.35,183.81,38.56z"/>
					<path class="st2" d="M190.2,44.77c0,0.13-0.01,0.23-0.02,0.32c-0.01,0.09-0.03,0.16-0.05,0.21c-0.02,0.06-0.05,0.1-0.08,0.12
						c-0.03,0.03-0.07,0.04-0.11,0.04h-3.75c-0.14,0-0.26-0.04-0.35-0.12c-0.09-0.08-0.14-0.22-0.14-0.4v-7.42
						c0-0.04,0.01-0.08,0.04-0.11c0.03-0.03,0.07-0.06,0.14-0.08c0.06-0.02,0.15-0.04,0.26-0.05c0.11-0.01,0.24-0.02,0.4-0.02
						c0.16,0,0.3,0.01,0.4,0.02c0.11,0.01,0.19,0.03,0.25,0.05c0.06,0.02,0.11,0.05,0.14,0.08c0.03,0.03,0.04,0.07,0.04,0.11v6.58
						h2.57c0.04,0,0.08,0.01,0.11,0.03c0.03,0.02,0.06,0.06,0.08,0.11c0.02,0.05,0.04,0.12,0.05,0.21
						C190.19,44.54,190.2,44.64,190.2,44.77z"/>
					<path class="st2" d="M198.08,44.85c0.05,0.15,0.08,0.27,0.09,0.36c0.01,0.09,0,0.16-0.05,0.2c-0.05,0.04-0.13,0.07-0.25,0.08
						c-0.12,0.01-0.28,0.02-0.49,0.02c-0.21,0-0.38,0-0.5-0.01c-0.12-0.01-0.21-0.02-0.27-0.04c-0.06-0.02-0.11-0.05-0.13-0.08
						c-0.03-0.03-0.05-0.08-0.06-0.13l-0.55-1.64h-3.07l-0.52,1.6c-0.02,0.06-0.04,0.11-0.07,0.15c-0.03,0.04-0.07,0.07-0.13,0.09
						c-0.06,0.02-0.15,0.04-0.26,0.05c-0.11,0.01-0.26,0.01-0.44,0.01c-0.19,0-0.35-0.01-0.45-0.02c-0.11-0.01-0.19-0.04-0.23-0.09
						c-0.04-0.05-0.06-0.12-0.04-0.21c0.01-0.09,0.04-0.21,0.09-0.35l2.52-7.25c0.02-0.07,0.05-0.13,0.09-0.17
						c0.03-0.04,0.09-0.08,0.16-0.1c0.07-0.02,0.18-0.04,0.31-0.04c0.13-0.01,0.3-0.01,0.52-0.01c0.25,0,0.45,0,0.59,0.01
						c0.15,0.01,0.26,0.02,0.34,0.04c0.08,0.02,0.14,0.06,0.18,0.1c0.04,0.05,0.07,0.11,0.09,0.19L198.08,44.85z M194.32,38.85
						L194.32,38.85l-1.16,3.47h2.32L194.32,38.85z"/>
					<path class="st2" d="M206.22,41.26c0,0.75-0.1,1.39-0.29,1.92c-0.2,0.53-0.48,0.97-0.84,1.3c-0.37,0.34-0.81,0.58-1.34,0.74
						c-0.52,0.16-1.15,0.24-1.87,0.24h-1.95c-0.14,0-0.26-0.04-0.35-0.12c-0.09-0.08-0.14-0.22-0.14-0.4v-7.12
						c0-0.19,0.05-0.32,0.14-0.4c0.09-0.08,0.21-0.12,0.35-0.12h2.1c0.73,0,1.35,0.09,1.85,0.26c0.51,0.17,0.93,0.42,1.28,0.76
						c0.35,0.34,0.61,0.75,0.79,1.24C206.13,40.04,206.22,40.61,206.22,41.26z M204.5,41.32c0-0.39-0.05-0.75-0.14-1.08
						c-0.09-0.33-0.24-0.62-0.44-0.87c-0.2-0.24-0.46-0.43-0.77-0.57c-0.31-0.14-0.73-0.21-1.24-0.21h-0.84v5.56h0.87
						c0.45,0,0.84-0.06,1.15-0.18c0.31-0.12,0.57-0.3,0.78-0.53c0.21-0.24,0.36-0.53,0.47-0.89C204.45,42.2,204.5,41.79,204.5,41.32
						z"/>
					<path class="st2" d="M212.63,44.81c0,0.12-0.01,0.22-0.02,0.31c-0.01,0.08-0.03,0.15-0.05,0.2c-0.02,0.05-0.05,0.09-0.08,0.11
						c-0.03,0.02-0.07,0.03-0.1,0.03h-4.11c-0.14,0-0.26-0.04-0.35-0.12c-0.09-0.08-0.14-0.22-0.14-0.4v-7.12
						c0-0.19,0.05-0.32,0.14-0.4c0.09-0.08,0.21-0.12,0.35-0.12h4.08c0.04,0,0.07,0.01,0.1,0.03c0.03,0.02,0.05,0.06,0.08,0.11
						c0.02,0.05,0.04,0.12,0.05,0.2c0.01,0.08,0.02,0.19,0.02,0.31c0,0.12-0.01,0.22-0.02,0.3c-0.01,0.08-0.03,0.15-0.05,0.2
						c-0.02,0.05-0.05,0.09-0.08,0.11c-0.03,0.02-0.06,0.03-0.1,0.03h-2.92v2h2.47c0.04,0,0.07,0.01,0.1,0.03
						c0.03,0.02,0.06,0.06,0.08,0.11c0.02,0.05,0.04,0.11,0.05,0.2c0.01,0.08,0.02,0.18,0.02,0.3c0,0.12-0.01,0.22-0.02,0.3
						c-0.01,0.08-0.03,0.14-0.05,0.19c-0.02,0.05-0.05,0.08-0.08,0.1c-0.03,0.02-0.07,0.03-0.1,0.03h-2.47v2.31h2.94
						c0.04,0,0.07,0.01,0.1,0.03c0.03,0.02,0.06,0.06,0.08,0.11c0.02,0.05,0.04,0.12,0.05,0.2
						C212.63,44.59,212.63,44.69,212.63,44.81z"/>
					<path class="st2" d="M219.02,43.01c0,0.43-0.08,0.81-0.24,1.13c-0.16,0.32-0.38,0.6-0.65,0.81c-0.27,0.22-0.59,0.38-0.96,0.49
						c-0.37,0.11-0.76,0.16-1.17,0.16c-0.28,0-0.54-0.02-0.79-0.07c-0.24-0.05-0.46-0.1-0.64-0.17c-0.19-0.07-0.34-0.13-0.46-0.21
						c-0.12-0.07-0.21-0.13-0.27-0.19c-0.05-0.05-0.09-0.13-0.12-0.24c-0.02-0.1-0.03-0.25-0.03-0.45c0-0.13,0-0.24,0.01-0.33
						c0.01-0.09,0.02-0.16,0.04-0.21c0.02-0.05,0.04-0.09,0.08-0.12c0.03-0.02,0.07-0.03,0.11-0.03c0.06,0,0.14,0.03,0.25,0.1
						c0.11,0.07,0.24,0.15,0.41,0.23c0.17,0.08,0.37,0.16,0.6,0.23c0.23,0.07,0.5,0.1,0.81,0.1c0.2,0,0.38-0.02,0.54-0.07
						c0.16-0.05,0.3-0.12,0.41-0.2c0.11-0.09,0.2-0.2,0.26-0.33c0.06-0.13,0.09-0.28,0.09-0.44c0-0.19-0.05-0.34-0.15-0.48
						c-0.1-0.13-0.23-0.25-0.39-0.35c-0.16-0.1-0.35-0.2-0.55-0.29c-0.21-0.09-0.42-0.19-0.64-0.29c-0.22-0.1-0.43-0.22-0.64-0.34
						c-0.21-0.13-0.39-0.28-0.55-0.46c-0.16-0.18-0.29-0.39-0.39-0.63c-0.1-0.24-0.15-0.54-0.15-0.88c0-0.39,0.07-0.74,0.22-1.03
						c0.15-0.3,0.34-0.54,0.59-0.74c0.25-0.2,0.54-0.34,0.87-0.44c0.34-0.1,0.69-0.15,1.06-0.15c0.19,0,0.39,0.01,0.58,0.04
						c0.19,0.03,0.37,0.07,0.54,0.12c0.17,0.05,0.32,0.11,0.45,0.17c0.13,0.06,0.22,0.12,0.26,0.16c0.04,0.04,0.07,0.08,0.09,0.11
						c0.01,0.03,0.03,0.07,0.04,0.12c0.01,0.05,0.02,0.11,0.02,0.18c0,0.07,0.01,0.16,0.01,0.27c0,0.12,0,0.23-0.01,0.31
						c-0.01,0.08-0.02,0.15-0.03,0.21c-0.01,0.05-0.04,0.09-0.06,0.12c-0.03,0.03-0.06,0.04-0.11,0.04s-0.12-0.03-0.22-0.09
						c-0.1-0.06-0.23-0.12-0.37-0.19c-0.15-0.07-0.32-0.13-0.51-0.19c-0.19-0.06-0.41-0.09-0.64-0.09c-0.18,0-0.34,0.02-0.47,0.07
						c-0.13,0.04-0.25,0.11-0.34,0.18c-0.09,0.08-0.16,0.17-0.2,0.28c-0.04,0.11-0.07,0.23-0.07,0.35c0,0.18,0.05,0.34,0.15,0.47
						c0.1,0.13,0.23,0.25,0.4,0.35c0.17,0.1,0.35,0.2,0.57,0.29c0.21,0.09,0.43,0.19,0.64,0.29c0.22,0.1,0.43,0.22,0.64,0.34
						c0.21,0.13,0.4,0.28,0.56,0.46c0.16,0.18,0.3,0.39,0.4,0.63C218.97,42.4,219.02,42.69,219.02,43.01z"/>
					<path class="st2" d="M226.88,45.24c0,0.04-0.01,0.08-0.04,0.11c-0.03,0.03-0.07,0.06-0.14,0.08c-0.06,0.02-0.15,0.04-0.25,0.05
						c-0.11,0.01-0.24,0.02-0.4,0.02c-0.16,0-0.3-0.01-0.41-0.02c-0.11-0.01-0.19-0.03-0.25-0.05c-0.06-0.02-0.11-0.05-0.13-0.08
						c-0.03-0.03-0.04-0.07-0.04-0.11v-3.3h-3.06v3.3c0,0.04-0.01,0.08-0.04,0.11c-0.02,0.03-0.07,0.06-0.13,0.08
						c-0.06,0.02-0.15,0.04-0.25,0.05c-0.11,0.01-0.24,0.02-0.4,0.02c-0.16,0-0.29-0.01-0.4-0.02c-0.11-0.01-0.19-0.03-0.26-0.05
						c-0.06-0.02-0.11-0.05-0.14-0.08c-0.03-0.03-0.04-0.07-0.04-0.11v-7.72c0-0.04,0.01-0.08,0.04-0.11
						c0.03-0.03,0.07-0.06,0.14-0.08c0.06-0.02,0.15-0.04,0.26-0.05c0.11-0.01,0.24-0.02,0.4-0.02c0.16,0,0.3,0.01,0.4,0.02
						c0.11,0.01,0.19,0.03,0.25,0.05c0.06,0.02,0.11,0.05,0.13,0.08c0.03,0.03,0.04,0.07,0.04,0.11v3h3.06v-3
						c0-0.04,0.01-0.08,0.04-0.11c0.03-0.03,0.07-0.06,0.13-0.08c0.06-0.02,0.15-0.04,0.25-0.05c0.11-0.01,0.24-0.02,0.41-0.02
						c0.16,0,0.29,0.01,0.4,0.02c0.11,0.01,0.19,0.03,0.25,0.05c0.06,0.02,0.11,0.05,0.14,0.08c0.03,0.03,0.04,0.07,0.04,0.11V45.24
						z"/>
				</g>
			</g>
		</g>
	</g>
</g>
</svg>
